HIERARCHY
ROOT SimulationBone
{
	OFFSET 0.000000 0.000000 0.000000
	CHANNELS 6 Xposition Yposition Zposition Zrotation Yrotation Xrotation 
	JOINT Hips
	{
		OFFSET 0.000000 0.000000 0.000000
		CHANNELS 6 Xposition Yposition Zposition Zrotation Yrotation Xrotation 
		JOINT RightUpLeg
		{
			OFFSET 0.103462 1.857844 10.548508
			CHANNELS 3 Zrotation Yrotation Xrotation
			JOINT RightLeg
			{
				OFFSET 43.500000 -0.000046 -0.000008
				CHANNELS 3 Zrotation Yrotation Xrotation
				JOINT RightFoot
				{
					OFFSET 42.372192 0.000000 0.000004
					CHANNELS 3 Zrotation Yrotation Xrotation
					JOINT RightToe
					{
						OFFSET 17.299997 -0.000003 0.000018
						CHANNELS 3 Zrotation Yrotation Xrotation
						End Site
						{
							OFFSET 0.000000 0.000000 0.000000
						}
					}
				}
			}
		}
		JOINT LeftUpLeg
		{
			OFFSET 0.103459 1.857830 -10.548515
			CHANNELS 3 Zrotation Yrotation Xrotation
			JOINT LeftLeg
			{
				OFFSET 43.500046 -0.000034 -0.000006
				CHANNELS 3 Zrotation Yrotation Xrotation
				JOINT LeftFoot
				{
					OFFSET 42.372253 0.000015 -0.000006
					CHANNELS 3 Zrotation Yrotation Xrotation
					JOINT LeftToe
					{
						OFFSET 17.299969 -0.000012 0.000010
						CHANNELS 3 Zrotation Yrotation Xrotation
						End Site
						{
							OFFSET 0.000000 0.000000 0.000000
						}
					}
				}
			}
		}
		JOINT Spine
		{
			OFFSET 6.901964 -2.603727 0.000001
			CHANNELS 3 Zrotation Yrotation Xrotation
			JOINT Spine1
			{
				OFFSET 12.588105 -0.000009 0.000006
				CHANNELS 3 Zrotation Yrotation Xrotation
				JOINT Spine2
				{
					OFFSET 12.343197 0.000007 -0.000002
					CHANNELS 3 Zrotation Yrotation Xrotation
					JOINT Neck
					{
						OFFSET 25.832897 0.000002 -0.000001
						CHANNELS 3 Zrotation Yrotation Xrotation
						JOINT Head
						{
							OFFSET 11.766611 0.000000 0.000004
							CHANNELS 3 Zrotation Yrotation Xrotation
							End Site
							{
								OFFSET 0.000000 0.000000 0.000000
							}
						}
					}
					JOINT RightShoulder
					{
						OFFSET 19.745911 -1.480377 6.000110
						CHANNELS 3 Zrotation Yrotation Xrotation
						JOINT RightArm
						{
							OFFSET 11.284108 -0.000006 -0.000027
							CHANNELS 3 Zrotation Yrotation Xrotation
							JOINT RightForeArm
							{
								OFFSET 33.000046 -0.000010 0.000031
								CHANNELS 3 Zrotation Yrotation Xrotation
								JOINT RightHand
								{
									OFFSET 25.200014 0.000009 0.000001
									CHANNELS 3 Zrotation Yrotation Xrotation
									End Site
									{
										OFFSET 0.000000 0.000000 0.000000
									}
								}
							}
						}
					}
					JOINT LeftShoulder
					{
						OFFSET 19.746105 -1.480358 -6.000092
						CHANNELS 3 Zrotation Yrotation Xrotation
						JOINT LeftArm
						{
							OFFSET 11.284138 -0.000011 -0.000001
							CHANNELS 3 Zrotation Yrotation Xrotation
							JOINT LeftForeArm
							{
								OFFSET 33.000088 0.000023 -0.000007
								CHANNELS 3 Zrotation Yrotation Xrotation
								JOINT LeftHand
								{
									OFFSET 25.199776 0.000128 0.000427
									CHANNELS 3 Zrotation Yrotation Xrotation
									End Site
									{
										OFFSET 0.000000 0.000000 0.000000
									}
								}
							}
						}
					}
				}
			}
		}
	}
}
MOTION
Frames: 7
Frame Time: 0.033333
-147.627105 0.000000 -145.330947 180.000000 75.355011 180.000000 0.677568 82.058777 -0.420856 93.396784 -4.341764 176.822649 147.132097 10.832902 -179.988216 -51.374661 1.424917 -4.614784 89.492718 3.206487 0.038083 21.454557 0.003102 0.000015 176.049779 11.814813 -165.556750 -90.337708 -3.390865 6.346437 75.015954 -2.942194 4.999404 21.454550 -0.003089 -0.000003 6.968425 -1.416831 1.391644 3.890850 -2.879021 2.736257 3.572707 -2.862583 2.753600 -3.439560 -3.049016 -4.066541 -23.021351 7.330348 -8.075993 -161.574654 -75.514817 -20.265713 30.111954 44.923356 47.314592 -81.252436 -5.433138 2.340471 -9.213742 -11.574713 17.809232 -162.619168 84.671779 19.134036 -9.093534 -61.877942 -20.402572 -101.035614 0.598678 -2.837603 -8.449137 9.903943 -19.859449 
-147.209842 0.000000 -152.573594 180.000000 77.045071 180.000000 0.070873 81.509933 -1.286304 93.107222 -5.240430 179.581687 149.665373 11.173201 178.739644 -55.380956 2.288552 -3.639420 95.815389 2.471223 0.068144 21.454558 0.003108 0.000017 167.313106 13.665408 -167.175423 -97.093857 -3.346466 7.016901 76.957948 -4.235220 2.176669 21.454555 -0.003092 -0.000005 7.193104 -1.620656 0.884923 4.350679 -3.273045 1.709567 4.032171 -3.262800 1.729310 -3.809070 -2.222873 -3.968421 -25.036963 7.694490 -8.103592 -169.881681 -73.524323 -11.756100 13.432095 46.729549 38.840284 -72.625511 -8.738392 2.202399 -9.078004 -14.683923 16.200483 -159.247063 81.858424 22.575942 -3.203081 -64.874223 -26.135341 -92.786569 2.436882 -2.599309 -8.932287 8.940509 -21.721783 
-146.873646 0.000000 -159.812293 180.000000 78.613313 180.000000 -0.673791 81.871246 -1.720958 92.822311 -4.854334 -179.600544 154.146072 9.115394 177.766711 -55.951185 2.477867 -2.864719 100.903703 1.858190 -0.534169 21.454558 0.003113 0.000017 158.193369 12.835906 -170.496193 -98.705577 -3.129012 7.544683 77.760071 -4.240815 3.546520 21.454541 -0.003088 -0.000003 7.330049 -1.519226 0.584139 4.634108 -3.060370 1.107859 4.315579 -3.053761 1.126327 -4.563366 -0.530016 -3.651170 -25.046437 7.167891 -7.102050 -175.168384 -73.709230 -6.328601 0.925732 49.373802 29.630754 -69.129840 -9.395864 2.104287 -9.076605 -13.747688 16.896778 -160.255882 81.235319 21.562011 7.092178 -66.466449 -35.514129 -85.793965 4.380219 -2.425937 -5.887490 10.765821 -16.368070 
-146.612322 0.000000 -167.044394 180.000000 80.058590 180.000000 -1.498265 83.308777 -1.897131 91.414570 -4.142265 -179.061482 159.182463 6.946402 177.585779 -52.720878 2.438740 -2.546560 102.807092 1.594235 -1.251590 21.454558 0.003101 0.000017 149.692652 10.830790 -172.755251 -94.074306 -2.613599 7.958361 77.564755 -4.810150 2.592516 21.454560 -0.003102 0.000002 7.060744 -1.278689 0.023947 4.109634 -2.557354 0.002940 3.791190 -2.557428 0.018395 -4.693691 0.406333 -2.531849 -24.580983 7.336827 -5.739972 -177.592992 -73.192307 -3.831610 -5.842351 49.713242 23.573192 -72.740647 -8.635739 2.200100 -11.738866 -13.680131 19.015411 -156.633791 81.377982 25.231907 19.915713 -63.636818 -46.002485 -87.273780 3.443147 -2.425569 -7.684368 11.926079 -15.533875 
-146.419675 0.000000 -174.267251 180.000000 81.381205 180.000000 -1.872411 85.658813 -1.794889 89.664014 -3.485882 -178.443014 165.422578 4.947506 176.949492 -45.988432 2.738609 -1.967661 100.734396 1.119934 -2.105957 21.454557 0.003112 0.000019 144.234730 9.096810 -174.728902 -83.929658 -1.225658 8.139453 76.826084 -4.155784 5.639737 21.454543 -0.003083 -0.000003 6.598568 -1.003165 -0.750110 3.198012 -1.985505 -1.527444 2.879819 -1.994840 -1.515424 -5.011652 2.726076 -1.078860 -23.736822 5.458601 -2.739897 -176.976349 -75.907820 -4.504819 -8.039178 52.301757 20.884441 -80.073702 -6.472372 2.361665 -11.212712 -13.399014 17.429270 -151.397987 81.125265 30.545873 29.342646 -57.277652 -53.191215 -93.116966 1.798312 -2.569385 -6.026056 10.249639 -12.978991 
-146.289512 0.000000 -181.478215 180.000000 82.582683 180.000000 -1.585820 88.369797 -1.726363 88.592090 -3.602658 -178.436160 172.238465 4.075803 176.424087 -38.920081 2.651135 -1.818150 93.162899 0.805000 -2.883821 21.454557 0.003097 0.000016 142.475642 7.803992 -176.023633 -69.461330 -0.192900 8.186713 75.409619 -4.148114 5.804488 21.454550 -0.003095 -0.000001 6.210160 -0.885290 -1.489912 2.430534 -1.739824 -2.997992 2.112756 -1.758032 -2.987447 -6.108675 5.380543 0.474209 -21.038735 3.145166 0.696140 -177.055292 -77.983726 -4.454521 -6.770469 53.630850 20.512984 -88.008422 -3.313119 2.489869 -11.606121 -12.844019 16.859922 -141.883752 81.465278 40.173086 34.327933 -51.344950 -57.195745 -97.748688 0.875623 -2.710982 -6.658862 8.735682 -10.215581 
-146.215636 0.000000 -188.674639 180.000000 83.665547 180.000000 -1.060080 91.179008 -1.578257 87.660402 -3.262441 -178.784883 177.736535 2.531492 175.950522 -33.256611 1.747763 -1.764249 80.524242 0.075137 -4.653378 21.454555 0.003104 0.000015 143.804729 6.072988 -176.194510 -51.789640 0.097829 6.710780 74.235379 -2.760851 6.853678 21.454555 -0.003106 0.000001 5.864611 -0.726789 -1.998265 1.741447 -1.424531 -4.007158 1.424091 -1.448817 -3.998496 -7.909930 8.387219 1.627535 -18.107837 0.543144 3.878707 179.531577 -78.865729 -0.993197 -4.436955 52.731178 22.809456 -95.400039 -1.699750 2.707386 -10.905588 -11.587076 14.843705 -135.741923 81.101939 46.407010 37.102325 -45.657311 -57.701698 -102.284303 0.033443 -2.853496 -6.175750 7.709758 -9.003706 
